<?xml version="1.0" encoding="UTF-8" standalone="no"?>
<!-- Created with Inkscape (http://www.inkscape.org/) -->

<svg
   xmlns:dc="http://purl.org/dc/elements/1.1/"
   xmlns:cc="http://creativecommons.org/ns#"
   xmlns:rdf="http://www.w3.org/1999/02/22-rdf-syntax-ns#"
   xmlns:svg="http://www.w3.org/2000/svg"
   xmlns="http://www.w3.org/2000/svg"
   xmlns:sodipodi="http://sodipodi.sourceforge.net/DTD/sodipodi-0.dtd"
   xmlns:inkscape="http://www.inkscape.org/namespaces/inkscape"
   id="svg4674"
   version="1.1"
   inkscape:version="0.91 r13725"
   xml:space="preserve"
   width="1064.04"
   height="332.46591"
   viewBox="0 0 1064.04 332.46591"
   sodipodi:docname="obj1.svg"
   inkscape:export-filename="/home/white/jcf12/content/teaching/CS123/examples/1/obj1.png"
   inkscape:export-xdpi="100"
   inkscape:export-ydpi="100"><metadata
     id="metadata4680"><rdf:RDF><cc:Work
         rdf:about=""><dc:format>image/svg+xml</dc:format><dc:type
           rdf:resource="http://purl.org/dc/dcmitype/StillImage" /><dc:title></dc:title></cc:Work></rdf:RDF></metadata><defs
     id="defs4678"><marker
       inkscape:stockid="Arrow1Lend"
       orient="auto"
       refY="0.0"
       refX="0.0"
       id="marker5394"
       style="overflow:visible;"
       inkscape:isstock="true"><path
         id="path5396"
         d="M 0.0,0.0 L 5.0,-5.0 L -12.5,0.0 L 5.0,5.0 L 0.0,0.0 z "
         style="fill-rule:evenodd;stroke:#000000;stroke-width:1pt;stroke-opacity:1;fill:#000000;fill-opacity:1"
         transform="scale(0.8) rotate(180) translate(12.5,0)" /></marker><marker
       inkscape:isstock="true"
       style="overflow:visible;"
       id="marker5358"
       refX="0.0"
       refY="0.0"
       orient="auto"
       inkscape:stockid="Arrow1Lend"
       inkscape:collect="always"><path
         transform="scale(0.8) rotate(180) translate(12.5,0)"
         style="fill-rule:evenodd;stroke:#000000;stroke-width:1pt;stroke-opacity:1;fill:#000000;fill-opacity:1"
         d="M 0.0,0.0 L 5.0,-5.0 L -12.5,0.0 L 5.0,5.0 L 0.0,0.0 z "
         id="path5360" /></marker><marker
       inkscape:stockid="Arrow1Lend"
       orient="auto"
       refY="0.0"
       refX="0.0"
       id="Arrow1Lend"
       style="overflow:visible;"
       inkscape:isstock="true"
       inkscape:collect="always"><path
         id="path4304"
         d="M 0.0,0.0 L 5.0,-5.0 L -12.5,0.0 L 5.0,5.0 L 0.0,0.0 z "
         style="fill-rule:evenodd;stroke:#000000;stroke-width:1pt;stroke-opacity:1;fill:#000000;fill-opacity:1"
         transform="scale(0.8) rotate(180) translate(12.5,0)" /></marker></defs><sodipodi:namedview
     pagecolor="#ffffff"
     bordercolor="#666666"
     borderopacity="1"
     objecttolerance="10"
     gridtolerance="10"
     guidetolerance="10"
     inkscape:pageopacity="0"
     inkscape:pageshadow="2"
     inkscape:window-width="1920"
     inkscape:window-height="922"
     id="namedview4676"
     showgrid="false"
     inkscape:zoom="1.3982112"
     inkscape:cx="592.98518"
     inkscape:cy="175.73132"
     inkscape:window-x="0"
     inkscape:window-y="0"
     inkscape:window-maximized="1"
     inkscape:current-layer="g4682" /><g
     id="g4682"
     inkscape:groupmode="layer"
     inkscape:label="obj1"
     transform="matrix(1.25,0,0,-1.25,0,332.4659)"><path
       inkscape:connector-curvature="0"
       id="path4686"
       style="fill:#ffffff;fill-opacity:1;fill-rule:nonzero;stroke:#000000;stroke-width:1.94000006;stroke-linecap:butt;stroke-linejoin:miter;stroke-miterlimit:10;stroke-dasharray:none;stroke-opacity:1"
       d="m 0.969,265.004 849.293,0 0,-264.035 -849.293,0 0,264.035 z" /><path
       inkscape:connector-curvature="0"
       id="path4688"
       style="fill:#cfe2f3;fill-opacity:1;fill-rule:evenodd;stroke:#000000;stroke-width:0.74999899;stroke-linecap:butt;stroke-linejoin:round;stroke-miterlimit:8;stroke-dasharray:none;stroke-opacity:1"
       d="m 305.23,211.191 c -1.472,11.598 3.372,23.079 12.477,29.571 9.109,6.492 20.883,6.859 30.324,0.941 3.348,6.742 9.469,11.399 16.52,12.559 7.047,1.16 14.195,-1.313 19.277,-6.668 2.848,6.113 8.445,10.222 14.801,10.863 6.355,0.645 12.574,-2.266 16.445,-7.699 5.149,6.48 13.34,9.211 21.031,7.008 7.688,-2.207 13.497,-8.946 14.907,-17.309 6.308,-1.84 11.562,-6.516 14.406,-12.824 2.844,-6.309 2.996,-13.629 0.422,-20.067 6.211,-8.648 7.664,-20.171 3.816,-30.269 -3.847,-10.098 -12.418,-17.254 -22.511,-18.797 -0.075,-9.477 -4.93,-18.172 -12.707,-22.734 -7.774,-4.563 -17.25,-4.282 -24.774,0.738 -3.203,-11.352 -12.223,-19.703 -23.164,-21.449 -10.938,-1.742 -21.836,3.433 -27.98,13.293 -7.536,-4.86 -16.579,-6.262 -25.082,-3.887 -8.508,2.379 -15.766,8.328 -20.137,16.512 -7.699,-0.965 -15.145,3.304 -18.637,10.683 -3.496,7.379 -2.297,16.301 3,22.336 -6.867,4.324 -10.371,12.903 -8.684,21.266 1.684,8.359 8.18,14.609 16.098,15.488 l 0.152,0.445 z" /><path
       inkscape:connector-curvature="0"
       id="path4690"
       style="fill:none;stroke:#000000;stroke-width:0.74999899;stroke-linecap:butt;stroke-linejoin:round;stroke-miterlimit:8;stroke-dasharray:none;stroke-opacity:1"
       d="m 297.668,173.992 c 3.238,-2.039 6.984,-2.965 10.727,-2.652 m 4.906,-30.367 c 1.609,0.203 3.187,0.629 4.695,1.269 m 40.52,-13.894 c -1.133,1.816 -2.082,3.758 -2.828,5.789 m 53.976,2.367 c 0.586,2.07 0.965,4.199 1.129,6.355 m 36.348,15.641 c 0.078,10.09 -5.282,19.328 -13.77,23.75 m 32.469,25.316 c -1.375,-3.437 -3.477,-6.484 -6.133,-8.906 m -8.695,41.797 c 0.234,-1.387 0.343,-2.793 0.324,-4.203 m -36.262,14.504 c -1.285,-1.617 -2.344,-3.422 -3.14,-5.363 m -28.106,2.199 c -0.683,-1.469 -1.195,-3.024 -1.523,-4.625 m -34.274,-1.266 c 2,-1.25 3.848,-2.758 5.508,-4.488 M 305.23,211.191 c 0.204,-1.597 0.528,-3.175 0.961,-4.718" /><text
       id="text4692"
       style="font-variant:normal;font-weight:normal;font-size:13.99997234px;font-family:'DejaVu Sans';-inkscape-font-specification:DejaVuSans;writing-mode:lr-tb;fill:#000000;fill-opacity:1;fill-rule:nonzero;stroke:none"
       transform="scale(1,-1)"
       x="329.17444"
       y="-213.37303"><tspan
         id="tspan4694"
         sodipodi:role="line"
         y="-213.37303"
         x="329.17444 337.72842 346.60443 350.48242 359.38638 364.09039 368.52838 377.40436 385.95834 399.5943">obj2: SomeClass</tspan><tspan
         id="tspan4696"
         sodipodi:role="line"
         y="-141.83183"
         x="342.23938 345.3194 353.07538 360.85934 368.61533 376.39932">logger</tspan></text>
<path
       inkscape:connector-curvature="0"
       id="path4698"
       style="fill:#cfe2f3;fill-opacity:1;fill-rule:evenodd;stroke:#000000;stroke-width:0.74999899;stroke-linecap:butt;stroke-linejoin:round;stroke-miterlimit:8;stroke-dasharray:none;stroke-opacity:1"
       d="m 427.645,80.449 c -1.043,6.938 2.382,13.805 8.82,17.688 6.437,3.883 14.758,4.101 21.433,0.562 2.364,4.032 6.692,6.817 11.672,7.512 4.985,0.691 10.035,-0.785 13.625,-3.988 2.016,3.656 5.973,6.113 10.465,6.496 4.492,0.387 8.883,-1.356 11.621,-4.606 3.641,3.879 9.43,5.508 14.864,4.192 5.437,-1.317 9.539,-5.352 10.539,-10.352 4.457,-1.101 8.171,-3.898 10.179,-7.672 2.012,-3.773 2.121,-8.152 0.297,-12 4.391,-5.172 5.418,-12.066 2.699,-18.105 -2.718,-6.039 -8.777,-10.32 -15.91,-11.242 -0.051,-5.668 -3.488,-10.871 -8.98,-13.602 -5.496,-2.726 -12.192,-2.559 -17.512,0.441 -2.266,-6.789 -8.641,-11.785 -16.371,-12.828 -7.731,-1.043 -15.434,2.055 -19.777,7.95 -5.325,-2.907 -11.715,-3.743 -17.727,-2.321 -6.016,1.418 -11.144,4.981 -14.234,9.875 -5.442,-0.578 -10.703,1.977 -13.172,6.387 -2.469,4.414 -1.621,9.754 2.121,13.363 -4.852,2.586 -7.332,7.715 -6.137,12.719 1.192,5 5.781,8.738 11.375,9.262 l 0.11,0.269 z" /><path
       inkscape:connector-curvature="0"
       id="path4700"
       style="fill:none;stroke:#000000;stroke-width:0.74999899;stroke-linecap:butt;stroke-linejoin:round;stroke-miterlimit:8;stroke-dasharray:none;stroke-opacity:1"
       d="m 422.301,58.199 c 2.289,-1.222 4.933,-1.773 7.582,-1.586 m 3.465,-18.164 c 1.14,0.121 2.254,0.375 3.32,0.758 m 28.637,-8.312 c -0.797,1.089 -1.469,2.25 -1.996,3.464 m 38.148,1.414 c 0.414,1.239 0.684,2.512 0.801,3.801 m 25.687,9.36 c 0.055,6.035 -3.73,11.558 -9.734,14.203 m 22.949,15.14 c -0.972,-2.054 -2.453,-3.875 -4.332,-5.324 m -6.144,25 c 0.164,-0.828 0.242,-1.672 0.226,-2.515 m -25.629,8.675 c -0.906,-0.965 -1.656,-2.047 -2.219,-3.207 m -19.867,1.317 c -0.48,-0.879 -0.843,-1.809 -1.074,-2.77 m -24.223,-0.754 c 1.411,-0.75 2.719,-1.652 3.891,-2.683 M 427.645,80.449 c 0.144,-0.957 0.371,-1.902 0.679,-2.824" /><text
       id="text4702"
       style="font-variant:normal;font-weight:normal;font-size:13.99997234px;font-family:'DejaVu Sans';-inkscape-font-specification:DejaVuSans;writing-mode:lr-tb;fill:#000000;fill-opacity:1;fill-rule:nonzero;stroke:none"
       transform="scale(1,-1)"
       x="456.43207"
       y="-63.410713"><tspan
         id="tspan4704"
         sodipodi:role="line"
         y="-63.410713"
         x="456.43207 464.23007 471.97205 479.72803 487.51202 495.26801">Logger</tspan></text>
<path
       inkscape:connector-curvature="0"
       id="path4710"
       style="fill:#cfe2f3;fill-opacity:1;fill-rule:evenodd;stroke:#000000;stroke-width:0.74999899;stroke-linecap:butt;stroke-linejoin:round;stroke-miterlimit:8;stroke-dasharray:none;stroke-opacity:1"
       d="m 602.711,199.191 c -1.477,11.598 3.367,23.079 12.473,29.571 9.109,6.492 20.882,6.859 30.328,0.941 3.343,6.742 9.468,11.399 16.515,12.559 7.051,1.16 14.196,-1.313 19.278,-6.668 2.851,6.113 8.445,10.222 14.8,10.863 6.36,0.645 12.575,-2.266 16.446,-7.699 5.148,6.48 13.34,9.211 21.031,7.008 7.691,-2.207 13.496,-8.946 14.91,-17.309 6.309,-1.84 11.563,-6.516 14.406,-12.824 2.844,-6.309 2.997,-13.629 0.418,-20.067 6.211,-8.648 7.664,-20.171 3.817,-30.269 -3.848,-10.098 -12.418,-17.254 -22.512,-18.797 -0.07,-9.477 -4.93,-18.172 -12.703,-22.734 -7.777,-4.563 -17.25,-4.282 -24.773,0.738 -3.207,-11.352 -12.227,-19.703 -23.168,-21.449 -10.938,-1.742 -21.836,3.433 -27.981,13.293 -7.535,-4.86 -16.574,-6.262 -25.082,-3.887 -8.508,2.379 -15.766,8.328 -20.137,16.512 -7.699,-0.965 -15.14,3.304 -18.636,10.683 -3.496,7.379 -2.297,16.301 3,22.336 -6.868,4.324 -10.371,12.903 -8.684,21.266 1.688,8.359 8.18,14.609 16.098,15.488 l 0.156,0.445 z" /><path
       inkscape:connector-curvature="0"
       id="path4712"
       style="fill:none;stroke:#000000;stroke-width:0.74999899;stroke-linecap:butt;stroke-linejoin:round;stroke-miterlimit:8;stroke-dasharray:none;stroke-opacity:1"
       d="m 595.145,161.992 c 3.242,-2.039 6.984,-2.965 10.73,-2.652 m 4.902,-30.367 c 1.61,0.203 3.188,0.629 4.696,1.269 m 40.519,-13.894 c -1.133,1.816 -2.078,3.758 -2.828,5.789 m 53.981,2.367 c 0.582,2.07 0.96,4.199 1.128,6.355 m 36.348,15.641 c 0.074,10.09 -5.285,19.328 -13.773,23.75 m 32.468,25.316 c -1.375,-3.437 -3.476,-6.484 -6.132,-8.906 m -8.692,41.797 c 0.235,-1.387 0.34,-2.793 0.324,-4.203 m -36.265,14.504 c -1.285,-1.617 -2.34,-3.422 -3.141,-5.363 m -28.105,2.199 c -0.684,-1.469 -1.196,-3.024 -1.52,-4.625 m -34.273,-1.266 c 1.996,-1.25 3.847,-2.758 5.504,-4.488 m -48.305,-26.024 c 0.203,-1.597 0.523,-3.175 0.961,-4.718" /><text
       id="text4714"
       style="font-variant:normal;font-weight:normal;font-size:13.99997234px;font-family:'DejaVu Sans';-inkscape-font-specification:DejaVuSans;writing-mode:lr-tb;fill:#000000;fill-opacity:1;fill-rule:nonzero;stroke:none"
       transform="scale(1,-1)"
       x="626.65222"
       y="-201.37306"><tspan
         id="tspan4716"
         sodipodi:role="line"
         y="-201.37306"
         x="626.65222 635.20624 644.08221 647.96021 656.8642 661.56818 666.00616 674.88214 683.4361 697.07208">obj3: SomeClass</tspan><tspan
         id="tspan4718"
         sodipodi:role="line"
         y="-129.83188"
         x="639.71716 642.79718 650.55316 658.33716 666.09314 673.87708">logger</tspan></text>
<path
       inkscape:connector-curvature="0"
       id="path4720"
       style="fill:#cfe2f3;fill-opacity:1;fill-rule:evenodd;stroke:#000000;stroke-width:0.74999899;stroke-linecap:butt;stroke-linejoin:round;stroke-miterlimit:8;stroke-dasharray:none;stroke-opacity:1"
       d="m 725.125,68.449 c -1.043,6.938 2.379,13.805 8.816,17.688 6.438,3.883 14.758,4.101 21.434,0.562 2.363,4.032 6.691,6.817 11.676,7.512 4.98,0.691 10.031,-0.785 13.625,-3.988 2.012,3.656 5.969,6.113 10.461,6.496 4.492,0.387 8.886,-1.356 11.621,-4.606 3.64,3.879 9.43,5.508 14.863,4.192 5.438,-1.317 9.543,-5.352 10.539,-10.352 4.461,-1.101 8.172,-3.898 10.184,-7.672 2.008,-3.773 2.117,-8.152 0.297,-12 4.39,-5.172 5.418,-12.066 2.695,-18.105 -2.719,-6.039 -8.777,-10.32 -15.91,-11.242 -0.051,-5.668 -3.485,-10.871 -8.981,-13.602 -5.496,-2.726 -12.191,-2.559 -17.507,0.441 -2.266,-6.789 -8.641,-11.785 -16.376,-12.828 -7.73,-1.043 -15.433,2.055 -19.777,7.95 -5.324,-2.907 -11.715,-3.743 -17.726,-2.321 -6.012,1.418 -11.145,4.981 -14.231,9.875 -5.445,-0.578 -10.703,1.977 -13.176,6.387 -2.468,4.414 -1.621,9.754 2.121,13.363 -4.851,2.586 -7.328,7.715 -6.136,12.719 1.191,5 5.781,8.738 11.379,9.262 l 0.109,0.269 z" /><path
       inkscape:connector-curvature="0"
       id="path4722"
       style="fill:none;stroke:#000000;stroke-width:0.74999899;stroke-linecap:butt;stroke-linejoin:round;stroke-miterlimit:8;stroke-dasharray:none;stroke-opacity:1"
       d="m 719.777,46.199 c 2.289,-1.222 4.938,-1.773 7.582,-1.586 m 3.469,-18.164 c 1.137,0.121 2.254,0.375 3.317,0.758 m 28.64,-8.312 c -0.801,1.089 -1.473,2.25 -2,3.464 m 38.153,1.414 c 0.41,1.239 0.679,2.512 0.796,3.801 m 25.692,9.36 c 0.051,6.035 -3.735,11.558 -9.735,14.203 m 22.946,15.14 c -0.969,-2.054 -2.453,-3.875 -4.332,-5.324 m -6.145,25 c 0.164,-0.828 0.242,-1.672 0.231,-2.515 m -25.633,8.675 c -0.906,-0.965 -1.656,-2.047 -2.219,-3.207 m -19.863,1.317 c -0.485,-0.879 -0.848,-1.809 -1.078,-2.77 m -24.223,-0.754 c 1.414,-0.75 2.719,-1.652 3.891,-2.683 M 725.125,68.449 c 0.141,-0.957 0.371,-1.902 0.676,-2.824" /><text
       id="text4724"
       style="font-variant:normal;font-weight:normal;font-size:13.99997234px;font-family:'DejaVu Sans';-inkscape-font-specification:DejaVuSans;writing-mode:lr-tb;fill:#000000;fill-opacity:1;fill-rule:nonzero;stroke:none"
       transform="scale(1,-1)"
       x="753.90979"
       y="-51.41074"><tspan
         id="tspan4726"
         sodipodi:role="line"
         y="-51.41074"
         x="753.90979 761.70776 769.44977 777.20575 784.98975 792.74573">Logger</tspan></text>
<path
       inkscape:connector-curvature="0"
       id="path4732"
       style="fill:#cfe2f3;fill-opacity:1;fill-rule:evenodd;stroke:#000000;stroke-width:0.74999899;stroke-linecap:butt;stroke-linejoin:round;stroke-miterlimit:8;stroke-dasharray:none;stroke-opacity:1"
       d="m 23.5,207.797 c -1.477,11.598 3.367,23.078 12.477,29.57 9.105,6.492 20.878,6.86 30.324,0.942 3.347,6.742 9.469,11.398 16.519,12.558 7.047,1.16 14.196,-1.312 19.278,-6.668 2.847,6.114 8.445,10.223 14.8,10.864 6.356,0.644 12.571,-2.266 16.446,-7.7 5.148,6.481 13.34,9.211 21.027,7.008 7.691,-2.207 13.5,-8.945 14.91,-17.308 6.309,-1.84 11.563,-6.52 14.407,-12.825 2.843,-6.308 2.996,-13.629 0.421,-20.066 6.211,-8.649 7.664,-20.172 3.817,-30.27 -3.848,-10.097 -12.418,-17.254 -22.516,-18.796 -0.07,-9.477 -4.93,-18.172 -12.703,-22.735 -7.773,-4.562 -17.25,-4.281 -24.773,0.738 -3.207,-11.351 -12.227,-19.703 -23.164,-21.449 -10.942,-1.742 -21.836,3.434 -27.985,13.293 -7.535,-4.859 -16.574,-6.262 -25.082,-3.887 -8.508,2.375 -15.765,8.329 -20.133,16.512 -7.699,-0.965 -15.144,3.305 -18.64,10.684 -3.492,7.379 -2.293,16.301 3.004,22.336 -6.868,4.324 -10.372,12.902 -8.688,21.265 1.688,8.36 8.184,14.61 16.102,15.489 l 0.152,0.445 z" /><path
       inkscape:connector-curvature="0"
       id="path4734"
       style="fill:none;stroke:#000000;stroke-width:0.74999899;stroke-linecap:butt;stroke-linejoin:round;stroke-miterlimit:8;stroke-dasharray:none;stroke-opacity:1"
       d="m 15.934,170.598 c 3.242,-2.039 6.988,-2.965 10.73,-2.653 m 4.906,-30.367 c 1.61,0.203 3.188,0.629 4.692,1.27 m 40.523,-13.895 c -1.133,1.817 -2.082,3.758 -2.828,5.789 m 53.977,2.367 c 0.586,2.071 0.961,4.2 1.128,6.356 m 36.348,15.641 c 0.074,10.089 -5.281,19.328 -13.773,23.75 m 32.468,25.316 c -1.375,-3.438 -3.472,-6.484 -6.132,-8.906 m -8.692,41.797 c 0.235,-1.387 0.344,-2.793 0.324,-4.204 m -36.261,14.504 C 132.059,245.746 131,243.941 130.199,242 m -28.101,2.199 c -0.688,-1.468 -1.196,-3.023 -1.524,-4.625 m -34.273,-1.265 c 2,-1.25 3.847,-2.758 5.504,-4.489 M 23.5,207.797 c 0.203,-1.598 0.523,-3.176 0.961,-4.719" /><text
       id="text4736"
       style="font-variant:normal;font-weight:normal;font-size:13.99997234px;font-family:'DejaVu Sans';-inkscape-font-specification:DejaVuSans;writing-mode:lr-tb;fill:#000000;fill-opacity:1;fill-rule:nonzero;stroke:none"
       transform="scale(1,-1)"
       x="47.442741"
       y="-209.97835"><tspan
         id="tspan4738"
         sodipodi:role="line"
         x="47.442741"
         y="-209.97835">obj1: SomeClass</tspan><tspan
         id="tspan4740"
         sodipodi:role="line"
         y="-138.43715"
         x="60.507683 63.587677 71.343658 79.127647 86.883629 94.66761">logger</tspan></text>
<path
       inkscape:connector-curvature="0"
       id="path4742"
       style="fill:#cfe2f3;fill-opacity:1;fill-rule:evenodd;stroke:#000000;stroke-width:0.74999899;stroke-linecap:butt;stroke-linejoin:round;stroke-miterlimit:8;stroke-dasharray:none;stroke-opacity:1"
       d="m 145.914,77.055 c -1.043,6.937 2.379,13.804 8.816,17.687 6.438,3.883 14.762,4.102 21.434,0.563 2.367,4.031 6.695,6.816 11.676,7.511 4.98,0.692 10.031,-0.785 13.625,-3.988 2.015,3.656 5.969,6.113 10.461,6.496 4.492,0.387 8.886,-1.355 11.625,-4.605 3.637,3.879 9.426,5.508 14.863,4.191 5.434,-1.32 9.539,-5.351 10.539,-10.351 4.457,-1.102 8.172,-3.899 10.18,-7.672 2.012,-3.774 2.117,-8.153 0.297,-12 4.39,-5.176 5.418,-12.067 2.699,-18.106 -2.719,-6.039 -8.777,-10.32 -15.914,-11.242 -0.051,-5.668 -3.485,-10.871 -8.977,-13.601 -5.496,-2.727 -12.195,-2.559 -17.511,0.441 -2.266,-6.789 -8.641,-11.785 -16.372,-12.828 -7.734,-1.043 -15.433,2.055 -19.781,7.949 -5.324,-2.906 -11.715,-3.742 -17.726,-2.32 -6.012,1.418 -11.141,4.98 -14.231,9.875 -5.441,-0.578 -10.703,1.972 -13.172,6.386 -2.472,4.415 -1.625,9.75 2.121,13.364 -4.855,2.586 -7.332,7.715 -6.14,12.718 1.191,5 5.785,8.739 11.379,9.262 l 0.109,0.27 z" /><path
       inkscape:connector-curvature="0"
       id="path4744"
       style="fill:none;stroke:#000000;stroke-width:0.74999899;stroke-linecap:butt;stroke-linejoin:round;stroke-miterlimit:8;stroke-dasharray:none;stroke-opacity:1"
       d="m 140.566,54.805 c 2.293,-1.223 4.938,-1.774 7.586,-1.586 m 3.465,-18.164 c 1.137,0.121 2.254,0.375 3.317,0.758 m 28.64,-8.313 c -0.801,1.09 -1.469,2.25 -2,3.465 m 38.153,1.414 c 0.414,1.238 0.679,2.512 0.796,3.801 m 25.692,9.359 c 0.055,6.035 -3.735,11.559 -9.735,14.203 m 22.95,15.141 c -0.973,-2.055 -2.457,-3.875 -4.336,-5.324 m -6.145,25 c 0.168,-0.828 0.242,-1.672 0.231,-2.516 m -25.629,8.676 c -0.91,-0.965 -1.656,-2.047 -2.223,-3.207 m -19.863,1.316 c -0.485,-0.879 -0.844,-1.808 -1.074,-2.769 m -24.227,-0.754 c 1.414,-0.75 2.719,-1.653 3.895,-2.684 M 145.914,77.055 c 0.145,-0.957 0.371,-1.903 0.68,-2.824" /><text
       id="text4746"
       style="font-variant:normal;font-weight:normal;font-size:13.99997234px;font-family:'DejaVu Sans';-inkscape-font-specification:DejaVuSans;writing-mode:lr-tb;fill:#000000;fill-opacity:1;fill-rule:nonzero;stroke:none"
       transform="scale(1,-1)"
       x="174.70036"
       y="-60.016041"><tspan
         id="tspan4748"
         sodipodi:role="line"
         y="-60.016041"
         x="174.70036 182.49835 190.24033 197.99631 205.7803 213.53629">Logger</tspan></text>
<path
       style="fill:none;fill-rule:evenodd;stroke:#000000;stroke-width:0.80000001px;stroke-linecap:butt;stroke-linejoin:miter;stroke-opacity:1;marker-end:url(#Arrow1Lend)"
       d="M 382.20264,139.60694 433.12485,96.694969"
       id="path5328"
       inkscape:connector-curvature="0"
       sodipodi:nodetypes="cc" /><path
       style="fill:none;fill-rule:evenodd;stroke:#000000;stroke-width:0.80000001px;stroke-linecap:butt;stroke-linejoin:miter;stroke-opacity:1;marker-end:url(#marker5358)"
       d="M 679.1535,127.01943 728.35922,83.535296"
       id="path5350"
       inkscape:connector-curvature="0" /><path
       style="fill:none;fill-rule:evenodd;stroke:#000000;stroke-width:0.80000001px;stroke-linecap:butt;stroke-linejoin:miter;stroke-opacity:1;marker-end:url(#marker5394)"
       d="M 101.27226,133.31318 149.90582,92.689849"
       id="path5386"
       inkscape:connector-curvature="0"
       sodipodi:nodetypes="cc" /></g></svg>