<?xml version="1.0" encoding="UTF-8" standalone="no"?>
<!-- Created with Inkscape (http://www.inkscape.org/) -->

<svg
   xmlns:dc="http://purl.org/dc/elements/1.1/"
   xmlns:cc="http://creativecommons.org/ns#"
   xmlns:rdf="http://www.w3.org/1999/02/22-rdf-syntax-ns#"
   xmlns:svg="http://www.w3.org/2000/svg"
   xmlns="http://www.w3.org/2000/svg"
   xmlns:sodipodi="http://sodipodi.sourceforge.net/DTD/sodipodi-0.dtd"
   xmlns:inkscape="http://www.inkscape.org/namespaces/inkscape"
   id="svg2"
   version="1.1"
   inkscape:version="0.91 r13725"
   xml:space="preserve"
   width="1064.0402"
   height="332.46588"
   viewBox="0 0 1064.0402 332.46588"
   sodipodi:docname="obj2.svg"
   inkscape:export-filename="/home/white/jcf12/content/teaching/CS123/examples/1/obj2.png"
   inkscape:export-xdpi="99.889946"
   inkscape:export-ydpi="99.889946"><metadata
     id="metadata8"><rdf:RDF><cc:Work
         rdf:about=""><dc:format>image/svg+xml</dc:format><dc:type
           rdf:resource="http://purl.org/dc/dcmitype/StillImage" /><dc:title></dc:title></cc:Work></rdf:RDF></metadata><defs
     id="defs6"><marker
       inkscape:stockid="Arrow1Lend"
       orient="auto"
       refY="0.0"
       refX="0.0"
       id="marker4621"
       style="overflow:visible;"
       inkscape:isstock="true"><path
         id="path4623"
         d="M 0.0,0.0 L 5.0,-5.0 L -12.5,0.0 L 5.0,5.0 L 0.0,0.0 z "
         style="fill-rule:evenodd;stroke:#000000;stroke-width:1pt;stroke-opacity:1;fill:#000000;fill-opacity:1"
         transform="scale(0.8) rotate(180) translate(12.5,0)" /></marker><marker
       inkscape:isstock="true"
       style="overflow:visible;"
       id="marker4585"
       refX="0.0"
       refY="0.0"
       orient="auto"
       inkscape:stockid="Arrow1Lend"
       inkscape:collect="always"><path
         transform="scale(0.8) rotate(180) translate(12.5,0)"
         style="fill-rule:evenodd;stroke:#000000;stroke-width:1pt;stroke-opacity:1;fill:#000000;fill-opacity:1"
         d="M 0.0,0.0 L 5.0,-5.0 L -12.5,0.0 L 5.0,5.0 L 0.0,0.0 z "
         id="path4587" /></marker><marker
       inkscape:stockid="Arrow1Lend"
       orient="auto"
       refY="0.0"
       refX="0.0"
       id="Arrow1Lend"
       style="overflow:visible;"
       inkscape:isstock="true"
       inkscape:collect="always"><path
         id="path4304"
         d="M 0.0,0.0 L 5.0,-5.0 L -12.5,0.0 L 5.0,5.0 L 0.0,0.0 z "
         style="fill-rule:evenodd;stroke:#000000;stroke-width:1pt;stroke-opacity:1;fill:#000000;fill-opacity:1"
         transform="scale(0.8) rotate(180) translate(12.5,0)" /></marker></defs><sodipodi:namedview
     pagecolor="#ffffff"
     bordercolor="#666666"
     borderopacity="1"
     objecttolerance="10"
     gridtolerance="10"
     guidetolerance="10"
     inkscape:pageopacity="0"
     inkscape:pageshadow="2"
     inkscape:window-width="1920"
     inkscape:window-height="922"
     id="namedview4"
     showgrid="false"
     fit-margin-top="0"
     fit-margin-left="0"
     fit-margin-right="0"
     fit-margin-bottom="0"
     inkscape:zoom="1.0210855"
     inkscape:cx="484.36388"
     inkscape:cy="76.951616"
     inkscape:window-x="0"
     inkscape:window-y="0"
     inkscape:window-maximized="1"
     inkscape:current-layer="g10" /><g
     id="g10"
     inkscape:groupmode="layer"
     inkscape:label="obj1"
     transform="matrix(1.25,0,0,-1.25,8.067949,319.50121)"><rect
       style="opacity:1;fill:#ffffff;fill-opacity:1;stroke:#000000;stroke-width:1.93999994;stroke-miterlimit:10;stroke-dasharray:none;stroke-opacity:1"
       id="rect4242"
       width="849.29218"
       height="264.03271"
       x="-5.4843593"
       y="-254.63097"
       transform="scale(1,-1)" /><g
       transform="matrix(1,0,0,-1,0,248.55046)"
       id="g14"><path
         inkscape:connector-curvature="0"
         id="path16"
         style="fill:#cfe2f3;fill-opacity:1;fill-rule:evenodd;stroke:#000000;stroke-width:0.74999899;stroke-linecap:butt;stroke-linejoin:round;stroke-miterlimit:8;stroke-dasharray:none;stroke-opacity:1"
         d="m 298.777,47.73 c -1.472,-11.597 3.371,-23.078 12.477,-29.57 9.109,-6.492 20.883,-6.859 30.324,-0.941 3.348,-6.742 9.469,-11.399 16.52,-12.559 7.047,-1.16 14.195,1.313 19.277,6.668 2.848,-6.113 8.445,-10.223 14.801,-10.863 6.355,-0.645 12.574,2.265 16.445,7.699 5.149,-6.48 13.34,-9.211 21.031,-7.008 7.688,2.207 13.496,8.946 14.907,17.309 6.308,1.84 11.562,6.515 14.406,12.824 2.844,6.309 2.996,13.629 0.422,20.066 6.211,8.649 7.664,20.172 3.816,30.27 -3.848,10.098 -12.418,17.254 -22.512,18.797 -0.074,9.476 -4.929,18.172 -12.707,22.734 -7.773,4.563 -17.25,4.282 -24.773,-0.738 -3.203,11.352 -12.223,19.703 -23.164,21.449 -10.938,1.742 -21.836,-3.433 -27.981,-13.293 -7.535,4.86 -16.578,6.262 -25.082,3.887 -8.507,-2.379 -15.765,-8.328 -20.136,-16.512 -7.7,0.965 -15.145,-3.304 -18.637,-10.683 -3.496,-7.379 -2.297,-16.301 3,-22.336 -6.867,-4.325 -10.371,-12.903 -8.684,-21.266 1.684,-8.359 8.18,-14.609 16.098,-15.488 l 0.152,-0.446 z" /></g><g
       transform="matrix(1,0,0,-1,0,248.55046)"
       id="g18"><path
         inkscape:connector-curvature="0"
         id="path20"
         style="fill:none;stroke:#000000;stroke-width:0.74999899;stroke-linecap:butt;stroke-linejoin:round;stroke-miterlimit:8;stroke-dasharray:none;stroke-opacity:1"
         d="m 291.215,84.93 c 3.238,2.039 6.984,2.965 10.726,2.652 m 4.907,30.367 c 1.609,-0.203 3.187,-0.629 4.695,-1.269 m 40.519,13.894 c -1.132,-1.816 -2.082,-3.758 -2.828,-5.789 m 53.977,-2.367 c 0.586,-2.07 0.965,-4.199 1.129,-6.356 m 36.348,-15.64 c 0.078,-10.09 -5.282,-19.328 -13.77,-23.75 m 32.469,-25.317 c -1.375,3.438 -3.477,6.485 -6.133,8.907 m -8.695,-41.797 c 0.234,1.387 0.343,2.793 0.324,4.203 M 408.621,8.164 c -1.285,1.617 -2.344,3.422 -3.141,5.363 m -28.105,-2.199 c -0.684,1.469 -1.195,3.024 -1.523,4.625 m -34.274,1.266 c 2,1.25 3.848,2.758 5.508,4.488 M 298.777,47.73 c 0.203,1.598 0.528,3.176 0.961,4.719" /></g><text
       id="text22"
       style="font-variant:normal;font-weight:normal;font-size:13.99997234px;font-family:'DejaVu Sans';-inkscape-font-specification:DejaVuSans;writing-mode:lr-tb;fill:#000000;fill-opacity:1;fill-rule:nonzero;stroke:none"
       transform="scale(1,-1)"
       x="322.72009"
       y="-203.00128"><tspan
         id="tspan24"
         sodipodi:role="line"
         x="322.72009"
         y="-203.00128">obj2: SomeClass</tspan><tspan
         id="tspan26"
         sodipodi:role="line"
         y="-131.46008"
         x="335.78503 338.87903 346.64902 354.43298 362.20297 369.98697">logger</tspan></text>
<g
       transform="matrix(1,0,0,-1,0,248.55046)"
       id="g28"><path
         inkscape:connector-curvature="0"
         id="path30"
         style="fill:#cfe2f3;fill-opacity:1;fill-rule:evenodd;stroke:#000000;stroke-width:0.74999899;stroke-linecap:butt;stroke-linejoin:round;stroke-miterlimit:8;stroke-dasharray:none;stroke-opacity:1"
         d="m 421.191,178.473 c -1.043,-6.938 2.383,-13.805 8.821,-17.688 6.437,-3.883 14.758,-4.101 21.433,-0.562 2.364,-4.032 6.692,-6.817 11.672,-7.512 4.985,-0.691 10.035,0.785 13.625,3.988 2.016,-3.656 5.973,-6.113 10.465,-6.496 4.492,-0.387 8.883,1.356 11.621,4.606 3.641,-3.879 9.43,-5.508 14.863,-4.192 5.438,1.317 9.539,5.352 10.539,10.352 4.458,1.101 8.172,3.898 10.18,7.672 2.012,3.773 2.121,8.152 0.297,12 4.391,5.171 5.418,12.066 2.699,18.105 -2.718,6.039 -8.777,10.32 -15.91,11.242 -0.051,5.668 -3.488,10.871 -8.98,13.602 -5.496,2.726 -12.192,2.558 -17.512,-0.442 -2.266,6.79 -8.641,11.786 -16.371,12.829 -7.731,1.043 -15.434,-2.055 -19.778,-7.95 -5.324,2.907 -11.714,3.743 -17.726,2.321 -6.016,-1.418 -11.145,-4.981 -14.234,-9.875 -5.442,0.578 -10.704,-1.977 -13.172,-6.387 -2.469,-4.414 -1.621,-9.754 2.121,-13.363 -4.852,-2.586 -7.332,-7.715 -6.137,-12.719 1.191,-5 5.781,-8.738 11.375,-9.262 l 0.109,-0.269 z" /></g><g
       transform="matrix(1,0,0,-1,0,248.55046)"
       id="g32"><path
         inkscape:connector-curvature="0"
         id="path34"
         style="fill:none;stroke:#000000;stroke-width:0.74999899;stroke-linecap:butt;stroke-linejoin:round;stroke-miterlimit:8;stroke-dasharray:none;stroke-opacity:1"
         d="m 415.848,200.723 c 2.289,1.222 4.933,1.773 7.582,1.586 m 3.465,18.164 c 1.14,-0.121 2.253,-0.375 3.32,-0.758 m 28.637,8.312 c -0.797,-1.089 -1.469,-2.25 -1.997,-3.465 m 38.149,-1.414 c 0.414,-1.238 0.684,-2.511 0.801,-3.8 m 25.687,-9.36 c 0.055,-6.035 -3.73,-11.558 -9.734,-14.203 m 22.949,-15.14 c -0.973,2.054 -2.453,3.875 -4.332,5.324 m -6.145,-25 c 0.165,0.828 0.243,1.672 0.227,2.515 m -25.629,-8.675 c -0.906,0.964 -1.656,2.046 -2.219,3.207 m -19.867,-1.317 c -0.48,0.879 -0.844,1.809 -1.074,2.77 m -24.223,0.754 c 1.41,0.75 2.719,1.652 3.891,2.683 m -34.145,15.567 c 0.145,0.957 0.371,1.902 0.68,2.824" /></g><text
       id="text36"
       style="font-variant:normal;font-weight:normal;font-size:13.99997234px;font-family:'DejaVu Sans';-inkscape-font-specification:DejaVuSans;writing-mode:lr-tb;fill:#000000;fill-opacity:1;fill-rule:nonzero;stroke:none"
       transform="scale(1,-1)"
       x="449.97772"
       y="-53.038963"><tspan
         id="tspan38"
         sodipodi:role="line"
         y="-53.038963"
         x="449.97772 457.7757 465.53168 473.30167 481.08566 488.85565">Logger</tspan></text>
<g
       transform="matrix(1,0,0,-1,0,248.55046)"
       id="g48"><path
         inkscape:connector-curvature="0"
         id="path50"
         style="fill:#cfe2f3;fill-opacity:1;fill-rule:evenodd;stroke:#000000;stroke-width:0.74999899;stroke-linecap:butt;stroke-linejoin:round;stroke-miterlimit:8;stroke-dasharray:none;stroke-opacity:1"
         d="m 596.258,59.73 c -1.477,-11.597 3.367,-23.078 12.472,-29.57 9.11,-6.492 20.883,-6.859 30.329,-0.941 3.343,-6.742 9.468,-11.399 16.515,-12.559 7.051,-1.16 14.196,1.313 19.278,6.668 2.851,-6.113 8.445,-10.223 14.8,-10.863 6.36,-0.645 12.575,2.265 16.446,7.699 5.148,-6.48 13.34,-9.211 21.031,-7.008 7.691,2.207 13.496,8.946 14.91,17.309 6.309,1.84 11.563,6.515 14.406,12.824 2.844,6.309 2.996,13.629 0.418,20.066 6.211,8.649 7.664,20.172 3.817,30.27 -3.848,10.098 -12.418,17.254 -22.512,18.797 -0.07,9.476 -4.93,18.172 -12.703,22.734 -7.777,4.563 -17.25,4.282 -24.774,-0.738 -3.207,11.352 -12.226,19.703 -23.168,21.449 -10.937,1.742 -21.835,-3.433 -27.98,-13.293 -7.535,4.86 -16.574,6.262 -25.082,3.887 -8.508,-2.379 -15.766,-8.328 -20.137,-16.512 -7.699,0.965 -15.14,-3.304 -18.636,-10.683 -3.497,-7.379 -2.297,-16.301 3,-22.336 -6.868,-4.325 -10.372,-12.903 -8.684,-21.266 1.687,-8.359 8.18,-14.609 16.098,-15.488 l 0.156,-0.446 z" /></g><g
       transform="matrix(1,0,0,-1,0,248.55046)"
       id="g52"><path
         inkscape:connector-curvature="0"
         id="path54"
         style="fill:none;stroke:#000000;stroke-width:0.74999899;stroke-linecap:butt;stroke-linejoin:round;stroke-miterlimit:8;stroke-dasharray:none;stroke-opacity:1"
         d="m 588.691,96.93 c 3.243,2.039 6.985,2.965 10.731,2.652 m 4.902,30.367 c 1.61,-0.203 3.188,-0.629 4.696,-1.269 m 40.519,13.894 c -1.133,-1.816 -2.078,-3.758 -2.828,-5.789 m 53.98,-2.367 c 0.582,-2.07 0.961,-4.199 1.129,-6.356 m 36.348,-15.64 c 0.074,-10.09 -5.285,-19.328 -13.773,-23.75 m 32.468,-25.317 c -1.375,3.438 -3.476,6.485 -6.133,8.907 m -8.691,-41.797 c 0.234,1.387 0.34,2.793 0.324,4.203 M 706.098,20.164 c -1.286,1.617 -2.34,3.422 -3.141,5.363 m -28.105,-2.199 c -0.684,1.469 -1.196,3.024 -1.52,4.625 m -34.273,1.266 c 1.996,1.25 3.847,2.758 5.503,4.488 M 596.258,59.73 c 0.203,1.598 0.523,3.176 0.961,4.719" /></g><text
       id="text56"
       style="font-variant:normal;font-weight:normal;font-size:13.99997234px;font-family:'DejaVu Sans';-inkscape-font-specification:DejaVuSans;writing-mode:lr-tb;fill:#000000;fill-opacity:1;fill-rule:nonzero;stroke:none"
       transform="scale(1,-1)"
       x="620.19788"
       y="-191.00131"><tspan
         id="tspan58"
         sodipodi:role="line"
         x="620.19788"
         y="-191.00131">obj3: SomeClass</tspan><tspan
         id="tspan60"
         sodipodi:role="line"
         y="-119.46013"
         x="633.26282 636.35681 644.12677 651.91077 659.68073 667.46472">logger</tspan></text>
<g
       transform="matrix(1,0,0,-1,0,248.55046)"
       id="g82"><path
         inkscape:connector-curvature="0"
         id="path84"
         style="fill:#cfe2f3;fill-opacity:1;fill-rule:evenodd;stroke:#000000;stroke-width:0.74999899;stroke-linecap:butt;stroke-linejoin:round;stroke-miterlimit:8;stroke-dasharray:none;stroke-opacity:1"
         d="m 17.047,51.125 c -1.477,-11.598 3.367,-23.078 12.476,-29.57 9.106,-6.493 20.879,-6.86 30.325,-0.942 3.347,-6.742 9.468,-11.398 16.519,-12.558 7.047,-1.16 14.195,1.312 19.278,6.668 2.847,-6.114 8.445,-10.223 14.8,-10.864 6.356,-0.644 12.571,2.266 16.446,7.7 5.148,-6.481 13.339,-9.211 21.027,-7.008 7.691,2.207 13.5,8.945 14.91,17.308 6.309,1.84 11.563,6.52 14.406,12.825 2.844,6.308 2.996,13.628 0.422,20.066 6.211,8.648 7.664,20.172 3.817,30.27 -3.848,10.097 -12.418,17.253 -22.516,18.796 -0.07,9.477 -4.93,18.172 -12.703,22.735 -7.774,4.562 -17.25,4.281 -24.774,-0.739 -3.207,11.352 -12.226,19.704 -23.164,21.45 -10.941,1.742 -21.836,-3.434 -27.984,-13.293 -7.535,4.859 -16.574,6.261 -25.082,3.886 C 36.742,135.48 29.484,129.527 25.117,121.344 17.418,122.309 9.973,118.039 6.477,110.66 2.984,103.281 4.184,94.359 9.48,88.324 2.613,84 -0.891,75.422 0.793,67.059 2.48,58.699 8.977,52.449 16.895,51.57 l 0.152,-0.445 z" /></g><g
       transform="matrix(1,0,0,-1,0,248.55046)"
       id="g86"><path
         inkscape:connector-curvature="0"
         id="path88"
         style="fill:none;stroke:#000000;stroke-width:0.74999899;stroke-linecap:butt;stroke-linejoin:round;stroke-miterlimit:8;stroke-dasharray:none;stroke-opacity:1"
         d="m 9.48,88.324 c 3.243,2.039 6.989,2.965 10.731,2.653 m 4.906,30.367 c 1.61,-0.203 3.188,-0.629 4.692,-1.27 m 40.523,13.895 c -1.133,-1.817 -2.082,-3.758 -2.828,-5.789 m 53.976,-2.368 c 0.586,-2.07 0.961,-4.199 1.129,-6.355 m 36.348,-15.641 c 0.074,-10.089 -5.281,-19.328 -13.773,-23.75 M 177.652,54.75 c -1.375,3.438 -3.472,6.484 -6.132,8.906 m -8.692,-41.797 c 0.234,1.387 0.344,2.793 0.324,4.203 M 126.891,11.559 c -1.286,1.617 -2.344,3.421 -3.145,5.363 M 95.645,14.723 c -0.688,1.468 -1.196,3.023 -1.524,4.625 m -34.273,1.265 c 2,1.25 3.847,2.758 5.504,4.489 M 17.047,51.125 c 0.203,1.598 0.523,3.176 0.961,4.719" /></g><text
       id="text90"
       style="font-variant:normal;font-weight:normal;font-size:13.99997234px;font-family:'DejaVu Sans';-inkscape-font-specification:DejaVuSans;writing-mode:lr-tb;fill:#000000;fill-opacity:1;fill-rule:nonzero;stroke:none"
       transform="scale(1,-1)"
       x="40.98838"
       y="-199.6066"><tspan
         id="tspan92"
         sodipodi:role="line"
         x="40.98838"
         y="-199.6066">obj1: SomeClass</tspan><tspan
         id="tspan94"
         sodipodi:role="line"
         y="-128.0654"
         x="54.053322 57.147316 64.917297 72.701286 80.471268 88.255249">logger</tspan></text>
<path
       style="fill:none;fill-rule:evenodd;stroke:#000000;stroke-width:0.80000001px;stroke-linecap:butt;stroke-linejoin:miter;stroke-opacity:1;marker-end:url(#Arrow1Lend)"
       d="M 101.66586,128.30421 407.22303,62.491898"
       id="path4295"
       inkscape:connector-curvature="0" /><path
       style="fill:none;fill-rule:evenodd;stroke:#000000;stroke-width:0.80000001px;stroke-linecap:butt;stroke-linejoin:miter;stroke-opacity:1;marker-end:url(#marker4585)"
       d="M 379.01775,134.57205 424.45959,89.91369"
       id="path4577"
       inkscape:connector-curvature="0" /><path
       style="fill:none;fill-rule:evenodd;stroke:#000000;stroke-width:0.80000001px;stroke-linecap:butt;stroke-linejoin:miter;stroke-opacity:1;marker-end:url(#marker4621)"
       d="M 630.51481,122.03637 538.06418,81.295418"
       id="path4613"
       inkscape:connector-curvature="0" /></g></svg>